<mxfile host="app.diagrams.net" modified="2023-06-20T03:19:00.502Z" agent="Mozilla/5.0 (Windows NT 10.0; Win64; x64) AppleWebKit/537.36 (KHTML, like Gecko) Chrome/114.0.0.0 Safari/537.36" etag="D0SloA9j7Uv9s5D2Ddqq" version="21.5.0" type="device">
  <diagram name="Página-1" id="gBUtkqNrIKotynBLvjPK">
    <mxGraphModel dx="2074" dy="756" grid="1" gridSize="10" guides="1" tooltips="1" connect="1" arrows="1" fold="1" page="1" pageScale="1" pageWidth="827" pageHeight="1169" math="0" shadow="0">
      <root>
        <mxCell id="0" />
        <mxCell id="1" parent="0" />
        <mxCell id="8liJQmMZoV-u6xwIEGl8-1" value="Usuário" style="shape=umlActor;verticalLabelPosition=bottom;verticalAlign=top;html=1;outlineConnect=0;" vertex="1" parent="1">
          <mxGeometry x="30" y="290" width="30" height="60" as="geometry" />
        </mxCell>
        <mxCell id="8liJQmMZoV-u6xwIEGl8-6" value="" style="endArrow=none;html=1;rounded=0;entryX=0.033;entryY=0.638;entryDx=0;entryDy=0;entryPerimeter=0;" edge="1" parent="1" target="8liJQmMZoV-u6xwIEGl8-18">
          <mxGeometry width="50" height="50" relative="1" as="geometry">
            <mxPoint x="70" y="310" as="sourcePoint" />
            <mxPoint x="180" y="329.5" as="targetPoint" />
          </mxGeometry>
        </mxCell>
        <mxCell id="8liJQmMZoV-u6xwIEGl8-14" value="UC01 - Gerenciamento de cadastro" style="ellipse;whiteSpace=wrap;html=1;fillColor=#f5f5f5;fontColor=#333333;strokeColor=#666666;" vertex="1" parent="1">
          <mxGeometry x="354" y="130" width="120" height="80" as="geometry" />
        </mxCell>
        <mxCell id="8liJQmMZoV-u6xwIEGl8-15" value="UC02 - Gerenciamento de receita" style="ellipse;whiteSpace=wrap;html=1;fillColor=#f5f5f5;fontColor=#333333;strokeColor=#666666;" vertex="1" parent="1">
          <mxGeometry x="625" y="500" width="120" height="80" as="geometry" />
        </mxCell>
        <mxCell id="8liJQmMZoV-u6xwIEGl8-16" value="UC03 - Favoritar receita" style="ellipse;whiteSpace=wrap;html=1;fillColor=#ffcc99;strokeColor=#36393d;" vertex="1" parent="1">
          <mxGeometry x="354" y="710" width="120" height="80" as="geometry" />
        </mxCell>
        <mxCell id="8liJQmMZoV-u6xwIEGl8-17" value="UC04 - Imprimir receita em PDF" style="ellipse;whiteSpace=wrap;html=1;fillColor=#ffff88;strokeColor=#36393d;" vertex="1" parent="1">
          <mxGeometry x="354" y="990" width="120" height="80" as="geometry" />
        </mxCell>
        <mxCell id="8liJQmMZoV-u6xwIEGl8-18" value="UC01.1 - Cadastrar usuário" style="ellipse;whiteSpace=wrap;html=1;fillColor=#0050ef;fontColor=#ffffff;strokeColor=#001DBC;" vertex="1" parent="1">
          <mxGeometry x="190" y="200" width="120" height="80" as="geometry" />
        </mxCell>
        <mxCell id="8liJQmMZoV-u6xwIEGl8-19" value="UC01.2 - Fazer login" style="ellipse;whiteSpace=wrap;html=1;fillColor=#1ba1e2;strokeColor=#006EAF;fontColor=#ffffff;" vertex="1" parent="1">
          <mxGeometry x="354" y="300" width="120" height="80" as="geometry" />
        </mxCell>
        <mxCell id="8liJQmMZoV-u6xwIEGl8-20" value="" style="endArrow=none;html=1;rounded=0;entryX=0;entryY=0.5;entryDx=0;entryDy=0;" edge="1" parent="1" target="8liJQmMZoV-u6xwIEGl8-19">
          <mxGeometry width="50" height="50" relative="1" as="geometry">
            <mxPoint x="80" y="320" as="sourcePoint" />
            <mxPoint x="204" y="201" as="targetPoint" />
            <Array as="points">
              <mxPoint x="310" y="310" />
            </Array>
          </mxGeometry>
        </mxCell>
        <mxCell id="8liJQmMZoV-u6xwIEGl8-21" value="UC02.1 - Adicionar receita" style="ellipse;whiteSpace=wrap;html=1;fillColor=#008a00;fontColor=#ffffff;strokeColor=#005700;" vertex="1" parent="1">
          <mxGeometry x="280" y="390" width="120" height="80" as="geometry" />
        </mxCell>
        <mxCell id="8liJQmMZoV-u6xwIEGl8-22" value="UC02.2 - Atualizar receita" style="ellipse;whiteSpace=wrap;html=1;fillColor=#a20025;strokeColor=#6F0000;fontColor=#ffffff;" vertex="1" parent="1">
          <mxGeometry x="474" y="380" width="120" height="80" as="geometry" />
        </mxCell>
        <mxCell id="8liJQmMZoV-u6xwIEGl8-23" value="UC02.3 - Deletar receita" style="ellipse;whiteSpace=wrap;html=1;fillColor=#f8cecc;gradientColor=#ea6b66;strokeColor=#b85450;" vertex="1" parent="1">
          <mxGeometry x="354" y="590" width="120" height="80" as="geometry" />
        </mxCell>
        <mxCell id="8liJQmMZoV-u6xwIEGl8-24" value="" style="endArrow=none;html=1;rounded=0;" edge="1" parent="1" target="8liJQmMZoV-u6xwIEGl8-21">
          <mxGeometry width="50" height="50" relative="1" as="geometry">
            <mxPoint x="70" y="340" as="sourcePoint" />
            <mxPoint x="200" y="290" as="targetPoint" />
          </mxGeometry>
        </mxCell>
        <mxCell id="8liJQmMZoV-u6xwIEGl8-25" value="" style="endArrow=none;html=1;rounded=0;entryX=0.017;entryY=0.275;entryDx=0;entryDy=0;entryPerimeter=0;" edge="1" parent="1" target="8liJQmMZoV-u6xwIEGl8-22">
          <mxGeometry width="50" height="50" relative="1" as="geometry">
            <mxPoint x="80" y="330" as="sourcePoint" />
            <mxPoint x="261" y="387" as="targetPoint" />
          </mxGeometry>
        </mxCell>
        <mxCell id="8liJQmMZoV-u6xwIEGl8-26" value="" style="endArrow=none;html=1;rounded=0;entryX=0.017;entryY=0.275;entryDx=0;entryDy=0;entryPerimeter=0;" edge="1" parent="1" target="8liJQmMZoV-u6xwIEGl8-23">
          <mxGeometry width="50" height="50" relative="1" as="geometry">
            <mxPoint x="50" y="390" as="sourcePoint" />
            <mxPoint x="354" y="500" as="targetPoint" />
            <Array as="points">
              <mxPoint x="80" y="620" />
              <mxPoint x="170" y="650" />
            </Array>
          </mxGeometry>
        </mxCell>
        <mxCell id="8liJQmMZoV-u6xwIEGl8-27" value="" style="endArrow=none;html=1;rounded=0;entryX=0.017;entryY=0.3;entryDx=0;entryDy=0;entryPerimeter=0;" edge="1" parent="1" target="8liJQmMZoV-u6xwIEGl8-16">
          <mxGeometry width="50" height="50" relative="1" as="geometry">
            <mxPoint x="40" y="390" as="sourcePoint" />
            <mxPoint x="325" y="520" as="targetPoint" />
            <Array as="points">
              <mxPoint x="60" y="640" />
            </Array>
          </mxGeometry>
        </mxCell>
        <mxCell id="8liJQmMZoV-u6xwIEGl8-28" value="" style="endArrow=none;html=1;rounded=0;entryX=0.042;entryY=0.325;entryDx=0;entryDy=0;entryPerimeter=0;" edge="1" parent="1" target="8liJQmMZoV-u6xwIEGl8-17">
          <mxGeometry width="50" height="50" relative="1" as="geometry">
            <mxPoint x="20" y="380" as="sourcePoint" />
            <mxPoint x="346" y="639" as="targetPoint" />
            <Array as="points">
              <mxPoint x="20" y="650" />
              <mxPoint x="30" y="900" />
              <mxPoint x="160" y="1000" />
            </Array>
          </mxGeometry>
        </mxCell>
        <mxCell id="8liJQmMZoV-u6xwIEGl8-29" value="UC01.1.1 - Usuário acessa a página de cadastro&amp;nbsp;" style="ellipse;whiteSpace=wrap;html=1;fillColor=#0050ef;fontColor=#ffffff;strokeColor=#001DBC;" vertex="1" parent="1">
          <mxGeometry x="10" y="40" width="90" height="80" as="geometry" />
        </mxCell>
        <mxCell id="8liJQmMZoV-u6xwIEGl8-30" value="UC01.1.2 - Usuário preenche os campos de cadastro&amp;nbsp;" style="ellipse;whiteSpace=wrap;html=1;fillColor=#0050ef;fontColor=#ffffff;strokeColor=#001DBC;" vertex="1" parent="1">
          <mxGeometry x="130" y="110" width="100" height="80" as="geometry" />
        </mxCell>
        <mxCell id="8liJQmMZoV-u6xwIEGl8-31" value="UC01.1.3 - Usuário confirma cadastro&amp;nbsp;" style="ellipse;whiteSpace=wrap;html=1;fillColor=#0050ef;fontColor=#ffffff;strokeColor=#001DBC;" vertex="1" parent="1">
          <mxGeometry x="260" y="40" width="80" height="80" as="geometry" />
        </mxCell>
        <mxCell id="8liJQmMZoV-u6xwIEGl8-32" value="UC01.1.4 - O sistema cria um novo registro com os dados do usuário&amp;nbsp;" style="ellipse;whiteSpace=wrap;html=1;spacing=1;fillColor=#0050ef;fontColor=#ffffff;strokeColor=#001DBC;" vertex="1" parent="1">
          <mxGeometry x="10" y="190" width="110" height="80" as="geometry" />
        </mxCell>
        <mxCell id="8liJQmMZoV-u6xwIEGl8-33" value="UC01.2.1 - Usuário acessa a página de login" style="ellipse;whiteSpace=wrap;html=1;fillColor=#1ba1e2;fontColor=#ffffff;strokeColor=#006EAF;" vertex="1" parent="1">
          <mxGeometry x="474" y="200" width="90" height="80" as="geometry" />
        </mxCell>
        <mxCell id="8liJQmMZoV-u6xwIEGl8-34" value="UC01.2.2 - Usuário preenche os campos com suas informações" style="ellipse;whiteSpace=wrap;html=1;spacing=2;spacingTop=-6;spacingRight=0;spacingBottom=2;fillColor=#1ba1e2;fontColor=#ffffff;strokeColor=#006EAF;" vertex="1" parent="1">
          <mxGeometry x="484" y="30" width="100" height="80" as="geometry" />
        </mxCell>
        <mxCell id="8liJQmMZoV-u6xwIEGl8-35" value="UC01.2.3 - Usuário confirma login" style="ellipse;whiteSpace=wrap;html=1;fillColor=#1ba1e2;fontColor=#ffffff;strokeColor=#006EAF;" vertex="1" parent="1">
          <mxGeometry x="655" y="100" width="90" height="80" as="geometry" />
        </mxCell>
        <mxCell id="8liJQmMZoV-u6xwIEGl8-36" value="UC01.2.4 - Sistema valida login" style="ellipse;whiteSpace=wrap;html=1;fillColor=#1ba1e2;fontColor=#ffffff;strokeColor=#006EAF;" vertex="1" parent="1">
          <mxGeometry x="750" y="200" width="90" height="80" as="geometry" />
        </mxCell>
        <mxCell id="8liJQmMZoV-u6xwIEGl8-37" value="UC01.2.5 - Sistema autentica e cria sessão de login" style="ellipse;whiteSpace=wrap;html=1;fillColor=#1ba1e2;fontColor=#ffffff;strokeColor=#006EAF;" vertex="1" parent="1">
          <mxGeometry x="570" y="210" width="100" height="80" as="geometry" />
        </mxCell>
        <mxCell id="8liJQmMZoV-u6xwIEGl8-38" value="UC01.2.6 - Sistema redireciona usuário ao sistema" style="ellipse;whiteSpace=wrap;html=1;fillColor=#1ba1e2;fontColor=#ffffff;strokeColor=#006EAF;" vertex="1" parent="1">
          <mxGeometry x="625" y="340" width="100" height="80" as="geometry" />
        </mxCell>
        <mxCell id="8liJQmMZoV-u6xwIEGl8-39" value="UC02.1.1 - Usuário preenche os campos para adicionar receita&amp;nbsp;" style="ellipse;whiteSpace=wrap;html=1;spacing=11;fillColor=#008a00;fontColor=#ffffff;strokeColor=#005700;" vertex="1" parent="1">
          <mxGeometry x="90" y="390" width="120" height="80" as="geometry" />
        </mxCell>
        <mxCell id="8liJQmMZoV-u6xwIEGl8-40" value="UC02.1.2 - Sistema valida os dados inseridos pelo usuário&amp;nbsp;" style="ellipse;whiteSpace=wrap;html=1;spacing=11;fillColor=#008a00;fontColor=#ffffff;strokeColor=#005700;" vertex="1" parent="1">
          <mxGeometry x="90" y="510" width="120" height="80" as="geometry" />
        </mxCell>
        <mxCell id="8liJQmMZoV-u6xwIEGl8-41" value="UC02.1.3 - Sistema adiciona receita no BD&amp;nbsp;" style="ellipse;whiteSpace=wrap;html=1;spacing=11;fillColor=#008a00;fontColor=#ffffff;strokeColor=#005700;" vertex="1" parent="1">
          <mxGeometry x="270" y="490" width="104" height="80" as="geometry" />
        </mxCell>
        <mxCell id="8liJQmMZoV-u6xwIEGl8-42" value="UC02.1.4 - Exibe receita adicionada na página&amp;nbsp;" style="ellipse;whiteSpace=wrap;html=1;spacing=11;fillColor=#008a00;fontColor=#ffffff;strokeColor=#005700;" vertex="1" parent="1">
          <mxGeometry x="460" y="490" width="104" height="80" as="geometry" />
        </mxCell>
        <mxCell id="8liJQmMZoV-u6xwIEGl8-43" value="UC03.1 - Usuário escolhe receita para favoritar" style="ellipse;whiteSpace=wrap;html=1;fillColor=#ffcc99;strokeColor=#36393d;" vertex="1" parent="1">
          <mxGeometry x="219" y="780" width="100" height="80" as="geometry" />
        </mxCell>
        <mxCell id="8liJQmMZoV-u6xwIEGl8-44" value="UC03.2 - Remove receita selecionada da página de adicionar" style="ellipse;whiteSpace=wrap;html=1;fillColor=#ffcc99;strokeColor=#36393d;" vertex="1" parent="1">
          <mxGeometry x="210" y="910" width="130" height="80" as="geometry" />
        </mxCell>
        <mxCell id="8liJQmMZoV-u6xwIEGl8-45" value="UC03.3 - Sistema valida os dados da receita" style="ellipse;whiteSpace=wrap;html=1;fillColor=#ffcc99;strokeColor=#36393d;" vertex="1" parent="1">
          <mxGeometry x="366" y="820" width="96" height="80" as="geometry" />
        </mxCell>
        <mxCell id="8liJQmMZoV-u6xwIEGl8-46" value="UC03.4 - Sistema adiciona receita a lista de favoritos do usuário" style="ellipse;whiteSpace=wrap;html=1;fillColor=#ffcc99;strokeColor=#36393d;" vertex="1" parent="1">
          <mxGeometry x="480" y="910" width="96" height="80" as="geometry" />
        </mxCell>
        <mxCell id="8liJQmMZoV-u6xwIEGl8-47" value="UC03.5 - Sistema emite mensagem de sucesso após favoritar" style="ellipse;whiteSpace=wrap;html=1;fillColor=#ffcc99;strokeColor=#36393d;" vertex="1" parent="1">
          <mxGeometry x="510" y="780" width="96" height="80" as="geometry" />
        </mxCell>
        <mxCell id="8liJQmMZoV-u6xwIEGl8-48" value="UC04.1 - Uusário escolhe a receita" style="ellipse;whiteSpace=wrap;html=1;fillColor=#ffff88;strokeColor=#36393d;" vertex="1" parent="1">
          <mxGeometry x="214" y="1080" width="120" height="60" as="geometry" />
        </mxCell>
        <mxCell id="8liJQmMZoV-u6xwIEGl8-49" value="UC04.2 - O sistema valida os dados da receita selecionada" style="ellipse;whiteSpace=wrap;html=1;fillColor=#ffff88;strokeColor=#36393d;" vertex="1" parent="1">
          <mxGeometry x="349" y="1150" width="130" height="80" as="geometry" />
        </mxCell>
        <mxCell id="8liJQmMZoV-u6xwIEGl8-50" value="UC04.3 - Receita selecionada é exibida em formato PDF ao usuário" style="ellipse;whiteSpace=wrap;html=1;fillColor=#ffff88;strokeColor=#36393d;" vertex="1" parent="1">
          <mxGeometry x="504" y="1060" width="130" height="80" as="geometry" />
        </mxCell>
        <mxCell id="8liJQmMZoV-u6xwIEGl8-51" value="" style="endArrow=classic;html=1;rounded=0;exitX=0.025;exitY=0.775;exitDx=0;exitDy=0;exitPerimeter=0;" edge="1" parent="1" source="8liJQmMZoV-u6xwIEGl8-17" target="8liJQmMZoV-u6xwIEGl8-48">
          <mxGeometry relative="1" as="geometry">
            <mxPoint x="354" y="1090" as="sourcePoint" />
            <mxPoint x="454" y="1090" as="targetPoint" />
          </mxGeometry>
        </mxCell>
        <mxCell id="8liJQmMZoV-u6xwIEGl8-52" value="Include" style="edgeLabel;resizable=0;html=1;align=center;verticalAlign=middle;" connectable="0" vertex="1" parent="8liJQmMZoV-u6xwIEGl8-51">
          <mxGeometry relative="1" as="geometry" />
        </mxCell>
        <mxCell id="8liJQmMZoV-u6xwIEGl8-53" value="" style="endArrow=classic;html=1;rounded=0;exitX=0.633;exitY=1.033;exitDx=0;exitDy=0;exitPerimeter=0;entryX=0.008;entryY=0.375;entryDx=0;entryDy=0;entryPerimeter=0;" edge="1" parent="1" source="8liJQmMZoV-u6xwIEGl8-48" target="8liJQmMZoV-u6xwIEGl8-49">
          <mxGeometry relative="1" as="geometry">
            <mxPoint x="349" y="1150" as="sourcePoint" />
            <mxPoint x="301" y="1184" as="targetPoint" />
          </mxGeometry>
        </mxCell>
        <mxCell id="8liJQmMZoV-u6xwIEGl8-54" value="Include" style="edgeLabel;resizable=0;html=1;align=center;verticalAlign=middle;" connectable="0" vertex="1" parent="8liJQmMZoV-u6xwIEGl8-53">
          <mxGeometry relative="1" as="geometry" />
        </mxCell>
        <mxCell id="8liJQmMZoV-u6xwIEGl8-55" value="" style="endArrow=classic;html=1;rounded=0;exitX=0.633;exitY=1.033;exitDx=0;exitDy=0;exitPerimeter=0;entryX=0.208;entryY=0.975;entryDx=0;entryDy=0;entryPerimeter=0;" edge="1" parent="1" target="8liJQmMZoV-u6xwIEGl8-50">
          <mxGeometry relative="1" as="geometry">
            <mxPoint x="479" y="1180" as="sourcePoint" />
            <mxPoint x="539" y="1218" as="targetPoint" />
          </mxGeometry>
        </mxCell>
        <mxCell id="8liJQmMZoV-u6xwIEGl8-56" value="Include" style="edgeLabel;resizable=0;html=1;align=center;verticalAlign=middle;" connectable="0" vertex="1" parent="8liJQmMZoV-u6xwIEGl8-55">
          <mxGeometry relative="1" as="geometry" />
        </mxCell>
        <mxCell id="8liJQmMZoV-u6xwIEGl8-57" value="" style="endArrow=classic;html=1;rounded=0;exitX=0.025;exitY=0.775;exitDx=0;exitDy=0;exitPerimeter=0;entryX=0.93;entryY=0.163;entryDx=0;entryDy=0;entryPerimeter=0;" edge="1" parent="1" target="8liJQmMZoV-u6xwIEGl8-43">
          <mxGeometry relative="1" as="geometry">
            <mxPoint x="360" y="760" as="sourcePoint" />
            <mxPoint x="312" y="794" as="targetPoint" />
          </mxGeometry>
        </mxCell>
        <mxCell id="8liJQmMZoV-u6xwIEGl8-58" value="Include" style="edgeLabel;resizable=0;html=1;align=center;verticalAlign=middle;" connectable="0" vertex="1" parent="8liJQmMZoV-u6xwIEGl8-57">
          <mxGeometry relative="1" as="geometry" />
        </mxCell>
        <mxCell id="8liJQmMZoV-u6xwIEGl8-59" value="" style="endArrow=classic;html=1;rounded=0;exitX=0.025;exitY=0.775;exitDx=0;exitDy=0;exitPerimeter=0;entryX=0.562;entryY=0.038;entryDx=0;entryDy=0;entryPerimeter=0;" edge="1" parent="1" target="8liJQmMZoV-u6xwIEGl8-44">
          <mxGeometry relative="1" as="geometry">
            <mxPoint x="280" y="860" as="sourcePoint" />
            <mxPoint x="232" y="893" as="targetPoint" />
          </mxGeometry>
        </mxCell>
        <mxCell id="8liJQmMZoV-u6xwIEGl8-60" value="Include" style="edgeLabel;resizable=0;html=1;align=center;verticalAlign=middle;" connectable="0" vertex="1" parent="8liJQmMZoV-u6xwIEGl8-59">
          <mxGeometry relative="1" as="geometry" />
        </mxCell>
        <mxCell id="8liJQmMZoV-u6xwIEGl8-61" value="" style="endArrow=classic;html=1;rounded=0;exitX=1;exitY=0;exitDx=0;exitDy=0;entryX=0.042;entryY=0.75;entryDx=0;entryDy=0;entryPerimeter=0;" edge="1" parent="1" source="8liJQmMZoV-u6xwIEGl8-44" target="8liJQmMZoV-u6xwIEGl8-45">
          <mxGeometry relative="1" as="geometry">
            <mxPoint x="360" y="860" as="sourcePoint" />
            <mxPoint x="312" y="893" as="targetPoint" />
          </mxGeometry>
        </mxCell>
        <mxCell id="8liJQmMZoV-u6xwIEGl8-62" value="Include" style="edgeLabel;resizable=0;html=1;align=center;verticalAlign=middle;" connectable="0" vertex="1" parent="8liJQmMZoV-u6xwIEGl8-61">
          <mxGeometry relative="1" as="geometry" />
        </mxCell>
        <mxCell id="8liJQmMZoV-u6xwIEGl8-63" value="" style="endArrow=classic;html=1;rounded=0;exitX=1;exitY=0;exitDx=0;exitDy=0;" edge="1" parent="1" target="8liJQmMZoV-u6xwIEGl8-46">
          <mxGeometry relative="1" as="geometry">
            <mxPoint x="461" y="860" as="sourcePoint" />
            <mxPoint x="510" y="818" as="targetPoint" />
          </mxGeometry>
        </mxCell>
        <mxCell id="8liJQmMZoV-u6xwIEGl8-64" value="Include" style="edgeLabel;resizable=0;html=1;align=center;verticalAlign=middle;" connectable="0" vertex="1" parent="8liJQmMZoV-u6xwIEGl8-63">
          <mxGeometry relative="1" as="geometry" />
        </mxCell>
        <mxCell id="8liJQmMZoV-u6xwIEGl8-65" value="" style="endArrow=classic;html=1;rounded=0;exitX=0.625;exitY=0;exitDx=0;exitDy=0;exitPerimeter=0;entryX=0.354;entryY=1.013;entryDx=0;entryDy=0;entryPerimeter=0;" edge="1" parent="1" source="8liJQmMZoV-u6xwIEGl8-46" target="8liJQmMZoV-u6xwIEGl8-47">
          <mxGeometry relative="1" as="geometry">
            <mxPoint x="558" y="860" as="sourcePoint" />
            <mxPoint x="520" y="870" as="targetPoint" />
          </mxGeometry>
        </mxCell>
        <mxCell id="8liJQmMZoV-u6xwIEGl8-66" value="Include" style="edgeLabel;resizable=0;html=1;align=center;verticalAlign=middle;" connectable="0" vertex="1" parent="8liJQmMZoV-u6xwIEGl8-65">
          <mxGeometry relative="1" as="geometry" />
        </mxCell>
        <mxCell id="8liJQmMZoV-u6xwIEGl8-67" value="" style="endArrow=classic;html=1;rounded=0;exitX=0;exitY=0.5;exitDx=0;exitDy=0;entryX=1;entryY=0.5;entryDx=0;entryDy=0;" edge="1" parent="1" source="8liJQmMZoV-u6xwIEGl8-21" target="8liJQmMZoV-u6xwIEGl8-39">
          <mxGeometry relative="1" as="geometry">
            <mxPoint x="240" y="430" as="sourcePoint" />
            <mxPoint x="192" y="464" as="targetPoint" />
          </mxGeometry>
        </mxCell>
        <mxCell id="8liJQmMZoV-u6xwIEGl8-68" value="Include" style="edgeLabel;resizable=0;html=1;align=center;verticalAlign=middle;" connectable="0" vertex="1" parent="8liJQmMZoV-u6xwIEGl8-67">
          <mxGeometry relative="1" as="geometry" />
        </mxCell>
        <mxCell id="8liJQmMZoV-u6xwIEGl8-69" value="" style="endArrow=classic;html=1;rounded=0;exitX=0.5;exitY=1;exitDx=0;exitDy=0;entryX=0.5;entryY=0;entryDx=0;entryDy=0;" edge="1" parent="1" source="8liJQmMZoV-u6xwIEGl8-39" target="8liJQmMZoV-u6xwIEGl8-40">
          <mxGeometry relative="1" as="geometry">
            <mxPoint x="185" y="500" as="sourcePoint" />
            <mxPoint x="115" y="500" as="targetPoint" />
          </mxGeometry>
        </mxCell>
        <mxCell id="8liJQmMZoV-u6xwIEGl8-70" value="Include" style="edgeLabel;resizable=0;html=1;align=center;verticalAlign=middle;" connectable="0" vertex="1" parent="8liJQmMZoV-u6xwIEGl8-69">
          <mxGeometry relative="1" as="geometry" />
        </mxCell>
        <mxCell id="8liJQmMZoV-u6xwIEGl8-71" value="" style="endArrow=classic;html=1;rounded=0;exitX=1.008;exitY=0.325;exitDx=0;exitDy=0;exitPerimeter=0;entryX=0;entryY=0.5;entryDx=0;entryDy=0;" edge="1" parent="1" source="8liJQmMZoV-u6xwIEGl8-40" target="8liJQmMZoV-u6xwIEGl8-41">
          <mxGeometry relative="1" as="geometry">
            <mxPoint x="240" y="530" as="sourcePoint" />
            <mxPoint x="280" y="590" as="targetPoint" />
          </mxGeometry>
        </mxCell>
        <mxCell id="8liJQmMZoV-u6xwIEGl8-72" value="Include" style="edgeLabel;resizable=0;html=1;align=center;verticalAlign=middle;" connectable="0" vertex="1" parent="8liJQmMZoV-u6xwIEGl8-71">
          <mxGeometry relative="1" as="geometry" />
        </mxCell>
        <mxCell id="8liJQmMZoV-u6xwIEGl8-74" value="" style="endArrow=classic;html=1;rounded=0;exitX=0.981;exitY=0.388;exitDx=0;exitDy=0;exitPerimeter=0;" edge="1" parent="1" source="8liJQmMZoV-u6xwIEGl8-41">
          <mxGeometry relative="1" as="geometry">
            <mxPoint x="410" y="550" as="sourcePoint" />
            <mxPoint x="460" y="530" as="targetPoint" />
          </mxGeometry>
        </mxCell>
        <mxCell id="8liJQmMZoV-u6xwIEGl8-75" value="Include" style="edgeLabel;resizable=0;html=1;align=center;verticalAlign=middle;" connectable="0" vertex="1" parent="8liJQmMZoV-u6xwIEGl8-74">
          <mxGeometry relative="1" as="geometry" />
        </mxCell>
        <mxCell id="8liJQmMZoV-u6xwIEGl8-76" value="" style="endArrow=classic;html=1;rounded=0;exitX=0;exitY=0.375;exitDx=0;exitDy=0;entryX=1;entryY=0.5;entryDx=0;entryDy=0;exitPerimeter=0;" edge="1" parent="1" source="8liJQmMZoV-u6xwIEGl8-18" target="8liJQmMZoV-u6xwIEGl8-32">
          <mxGeometry relative="1" as="geometry">
            <mxPoint x="260" y="160" as="sourcePoint" />
            <mxPoint x="190" y="160" as="targetPoint" />
          </mxGeometry>
        </mxCell>
        <mxCell id="8liJQmMZoV-u6xwIEGl8-77" value="Include" style="edgeLabel;resizable=0;html=1;align=center;verticalAlign=middle;" connectable="0" vertex="1" parent="8liJQmMZoV-u6xwIEGl8-76">
          <mxGeometry relative="1" as="geometry" />
        </mxCell>
        <mxCell id="8liJQmMZoV-u6xwIEGl8-78" value="" style="endArrow=classic;html=1;rounded=0;exitX=0.5;exitY=0;exitDx=0;exitDy=0;entryX=0.411;entryY=1.025;entryDx=0;entryDy=0;entryPerimeter=0;" edge="1" parent="1" source="8liJQmMZoV-u6xwIEGl8-32" target="8liJQmMZoV-u6xwIEGl8-29">
          <mxGeometry relative="1" as="geometry">
            <mxPoint x="120" y="160" as="sourcePoint" />
            <mxPoint x="50" y="160" as="targetPoint" />
          </mxGeometry>
        </mxCell>
        <mxCell id="8liJQmMZoV-u6xwIEGl8-79" value="Include" style="edgeLabel;resizable=0;html=1;align=center;verticalAlign=middle;" connectable="0" vertex="1" parent="8liJQmMZoV-u6xwIEGl8-78">
          <mxGeometry relative="1" as="geometry" />
        </mxCell>
        <mxCell id="8liJQmMZoV-u6xwIEGl8-80" value="" style="endArrow=classic;html=1;rounded=0;exitX=1;exitY=0.638;exitDx=0;exitDy=0;exitPerimeter=0;" edge="1" parent="1" source="8liJQmMZoV-u6xwIEGl8-29" target="8liJQmMZoV-u6xwIEGl8-30">
          <mxGeometry relative="1" as="geometry">
            <mxPoint x="185" y="70" as="sourcePoint" />
            <mxPoint x="115" y="70" as="targetPoint" />
          </mxGeometry>
        </mxCell>
        <mxCell id="8liJQmMZoV-u6xwIEGl8-81" value="Include" style="edgeLabel;resizable=0;html=1;align=center;verticalAlign=middle;" connectable="0" vertex="1" parent="8liJQmMZoV-u6xwIEGl8-80">
          <mxGeometry relative="1" as="geometry" />
        </mxCell>
        <mxCell id="8liJQmMZoV-u6xwIEGl8-82" value="" style="endArrow=classic;html=1;rounded=0;exitX=1;exitY=0.638;exitDx=0;exitDy=0;exitPerimeter=0;" edge="1" parent="1" target="8liJQmMZoV-u6xwIEGl8-31">
          <mxGeometry relative="1" as="geometry">
            <mxPoint x="227" y="140" as="sourcePoint" />
            <mxPoint x="270" y="172" as="targetPoint" />
          </mxGeometry>
        </mxCell>
        <mxCell id="8liJQmMZoV-u6xwIEGl8-83" value="Include" style="edgeLabel;resizable=0;html=1;align=center;verticalAlign=middle;" connectable="0" vertex="1" parent="8liJQmMZoV-u6xwIEGl8-82">
          <mxGeometry relative="1" as="geometry" />
        </mxCell>
        <mxCell id="8liJQmMZoV-u6xwIEGl8-84" value="" style="endArrow=classic;html=1;rounded=0;exitX=0.5;exitY=0;exitDx=0;exitDy=0;entryX=0.022;entryY=0.725;entryDx=0;entryDy=0;entryPerimeter=0;" edge="1" parent="1" source="8liJQmMZoV-u6xwIEGl8-19" target="8liJQmMZoV-u6xwIEGl8-33">
          <mxGeometry relative="1" as="geometry">
            <mxPoint x="354" y="265" as="sourcePoint" />
            <mxPoint x="396" y="230" as="targetPoint" />
          </mxGeometry>
        </mxCell>
        <mxCell id="8liJQmMZoV-u6xwIEGl8-85" value="Include" style="edgeLabel;resizable=0;html=1;align=center;verticalAlign=middle;" connectable="0" vertex="1" parent="8liJQmMZoV-u6xwIEGl8-84">
          <mxGeometry relative="1" as="geometry" />
        </mxCell>
        <mxCell id="8liJQmMZoV-u6xwIEGl8-86" value="" style="endArrow=classic;html=1;rounded=0;exitX=0.622;exitY=0;exitDx=0;exitDy=0;exitPerimeter=0;entryX=0.5;entryY=1;entryDx=0;entryDy=0;" edge="1" parent="1" source="8liJQmMZoV-u6xwIEGl8-33" target="8liJQmMZoV-u6xwIEGl8-34">
          <mxGeometry relative="1" as="geometry">
            <mxPoint x="444" y="160" as="sourcePoint" />
            <mxPoint x="446" y="120" as="targetPoint" />
          </mxGeometry>
        </mxCell>
        <mxCell id="8liJQmMZoV-u6xwIEGl8-87" value="Include" style="edgeLabel;resizable=0;html=1;align=center;verticalAlign=middle;" connectable="0" vertex="1" parent="8liJQmMZoV-u6xwIEGl8-86">
          <mxGeometry relative="1" as="geometry" />
        </mxCell>
        <mxCell id="8liJQmMZoV-u6xwIEGl8-90" value="" style="endArrow=classic;html=1;rounded=0;exitX=0.5;exitY=1;exitDx=0;exitDy=0;entryX=0;entryY=0;entryDx=0;entryDy=0;" edge="1" parent="1" source="8liJQmMZoV-u6xwIEGl8-35" target="8liJQmMZoV-u6xwIEGl8-36">
          <mxGeometry relative="1" as="geometry">
            <mxPoint x="650" y="110" as="sourcePoint" />
            <mxPoint x="692" y="166" as="targetPoint" />
          </mxGeometry>
        </mxCell>
        <mxCell id="8liJQmMZoV-u6xwIEGl8-91" value="Include" style="edgeLabel;resizable=0;html=1;align=center;verticalAlign=middle;" connectable="0" vertex="1" parent="8liJQmMZoV-u6xwIEGl8-90">
          <mxGeometry relative="1" as="geometry" />
        </mxCell>
        <mxCell id="8liJQmMZoV-u6xwIEGl8-92" value="" style="endArrow=classic;html=1;rounded=0;exitX=0;exitY=0.5;exitDx=0;exitDy=0;entryX=1;entryY=0.5;entryDx=0;entryDy=0;" edge="1" parent="1" source="8liJQmMZoV-u6xwIEGl8-36" target="8liJQmMZoV-u6xwIEGl8-37">
          <mxGeometry relative="1" as="geometry">
            <mxPoint x="660" y="120" as="sourcePoint" />
            <mxPoint x="661" y="160" as="targetPoint" />
          </mxGeometry>
        </mxCell>
        <mxCell id="8liJQmMZoV-u6xwIEGl8-93" value="Include" style="edgeLabel;resizable=0;html=1;align=center;verticalAlign=middle;" connectable="0" vertex="1" parent="8liJQmMZoV-u6xwIEGl8-92">
          <mxGeometry relative="1" as="geometry" />
        </mxCell>
        <mxCell id="8liJQmMZoV-u6xwIEGl8-94" value="" style="endArrow=classic;html=1;rounded=0;exitX=0.82;exitY=0.988;exitDx=0;exitDy=0;entryX=0.5;entryY=0;entryDx=0;entryDy=0;exitPerimeter=0;" edge="1" parent="1" source="8liJQmMZoV-u6xwIEGl8-37" target="8liJQmMZoV-u6xwIEGl8-38">
          <mxGeometry relative="1" as="geometry">
            <mxPoint x="616" y="200" as="sourcePoint" />
            <mxPoint x="564" y="240" as="targetPoint" />
          </mxGeometry>
        </mxCell>
        <mxCell id="8liJQmMZoV-u6xwIEGl8-95" value="Include" style="edgeLabel;resizable=0;html=1;align=center;verticalAlign=middle;" connectable="0" vertex="1" parent="8liJQmMZoV-u6xwIEGl8-94">
          <mxGeometry relative="1" as="geometry" />
        </mxCell>
        <mxCell id="8liJQmMZoV-u6xwIEGl8-96" value="" style="endArrow=classic;html=1;rounded=0;exitX=0.96;exitY=0.75;exitDx=0;exitDy=0;exitPerimeter=0;entryX=0;entryY=0.375;entryDx=0;entryDy=0;entryPerimeter=0;" edge="1" parent="1" source="8liJQmMZoV-u6xwIEGl8-34" target="8liJQmMZoV-u6xwIEGl8-35">
          <mxGeometry relative="1" as="geometry">
            <mxPoint x="634" y="180" as="sourcePoint" />
            <mxPoint x="638" y="90" as="targetPoint" />
          </mxGeometry>
        </mxCell>
        <mxCell id="8liJQmMZoV-u6xwIEGl8-97" value="Include" style="edgeLabel;resizable=0;html=1;align=center;verticalAlign=middle;" connectable="0" vertex="1" parent="8liJQmMZoV-u6xwIEGl8-96">
          <mxGeometry relative="1" as="geometry" />
        </mxCell>
      </root>
    </mxGraphModel>
  </diagram>
</mxfile>
